<svg width="80" height="80" viewBox="0 0 80 80" fill="none" xmlns="http://www.w3.org/2000/svg">
<path fill-rule="evenodd" clip-rule="evenodd" d="M19.9999 11.4286C19.9999 9.85058 21.2791 8.57141 22.8571 8.57141H28.5714C30.1494 8.57141 31.4285 9.85058 31.4285 11.4286V17.1428H48.5714V11.4286C48.5714 9.85058 49.8505 8.57141 51.4285 8.57141H57.1428C58.7208 8.57141 59.9999 9.85058 59.9999 11.4286V17.1428H68.5714C71.7273 17.1428 74.2857 19.7012 74.2857 22.8571V65.7143C74.2857 68.8702 71.7273 71.4286 68.5714 71.4286H11.4285C8.27261 71.4286 5.71423 68.8702 5.71423 65.7143V22.8571C5.71423 19.7012 8.27261 17.1428 11.4285 17.1428H19.9999V11.4286ZM65.7142 37.1428H14.2857V62.8571H65.7142V37.1428Z" fill="black"/>
</svg>
